PathFileType	4	(X/Y/Z)	motion_data.trc
DataRate	CameraRate	NumFrames	NumMarkers	Units	OrigDataRate	OrigDataStartFrame	OrigNumFrames
30.0	30.0	94	3	mm	30.0	1628	2170
Frame#	Time	r_acromion			r_humerus_epicondyle			r_radius_styloid		
		X1	Y1	Z1	X2	Y2	Z2	X3	Y3	Z3

1628	54.2333	406.8618	557.5088	-8.7934	358.8090	483.5775	-32.3354	419.4869	479.7138	-113.6122
1629	54.2667	407.8288	556.6979	-10.0357	365.6509	483.8128	-34.2228	430.6728	474.5234	-119.2998
1630	54.3000	408.7030	555.7308	-17.5565	372.2709	483.4504	-41.4462	438.9094	468.2039	-126.9533
1631	54.3333	409.3927	554.8268	-24.2112	377.6167	480.6035	-45.2249	446.4662	460.8047	-124.9978
1632	54.3667	410.3099	554.2536	-28.5442	381.2747	476.6552	-45.2992	452.4742	453.9720	-117.6464
1633	54.4000	411.9052	554.1948	-32.9643	382.8939	474.3133	-45.6623	454.8915	449.8005	-113.9529
1634	54.4333	413.8848	554.6412	-39.5349	382.2099	474.6050	-49.3695	454.0231	448.6126	-117.8631
1635	54.4667	415.0760	555.3573	-48.9746	379.5566	476.2096	-58.7168	452.7085	448.5927	-128.7311
1636	54.5000	414.2735	556.0775	-61.6062	375.9579	477.3559	-75.3314	454.0529	448.0234	-142.6382
1637	54.5333	411.3065	556.8169	-76.1524	372.5843	477.5141	-96.2126	460.2572	447.5885	-151.0046
1638	54.5667	407.2416	557.8345	-87.4460	370.0991	476.9685	-112.0463	472.6024	450.1323	-144.8050
1639	54.6000	403.4351	559.1799	-88.4157	368.7038	475.6272	-113.5519	490.2050	458.2042	-123.2280
1640	54.6333	400.3940	560.4999	-76.7307	369.3010	473.6352	-100.1271	508.4089	472.1417	-94.4045
1641	54.6667	397.6788	561.5103	-59.2544	374.6147	473.4494	-81.6071	521.0684	490.4923	-67.7944
1642	54.7000	394.8374	562.4564	-48.0439	387.7375	479.4196	-71.5947	526.6407	511.3607	-50.4412
1643	54.7333	392.1104	563.7946	-49.5170	407.6275	492.9690	-76.9865	530.2271	532.4500	-47.9140
1644	54.7667	390.0756	565.5149	-57.5003	426.6185	508.8866	-91.7249	536.8377	550.6896	-60.5583
1645	54.8000	388.7875	567.0805	-60.3913	436.0642	519.7389	-103.0065	544.5627	563.9790	-79.1301
1646	54.8333	387.5618	568.0024	-55.9845	436.0956	524.6358	-105.8840	548.1837	573.7381	-92.3664
1647	54.8667	385.8162	568.2207	-54.2546	436.4665	530.3543	-108.4954	547.6819	583.9306	-100.4718
1648	54.9000	384.1393	567.9518	-63.4314	445.7491	542.6107	-120.2339	548.1814	596.9339	-114.1854
1649	54.9333	384.2485	567.4435	-79.1174	463.1372	559.4938	-138.7428	552.0765	611.9138	-137.9431
1650	54.9667	387.5230	566.9640	-90.7846	482.3877	575.0343	-152.5639	556.0674	627.3125	-160.3414
1651	55.0000	393.4959	566.8015	-94.1754	499.1187	586.0908	-154.0732	556.8264	642.5975	-165.9053
1652	55.0333	399.9518	567.0785	-93.2196	511.5830	593.5661	-146.1203	556.2406	656.8477	-152.6957
1653	55.0667	404.5936	567.6362	-92.9594	518.4560	599.1427	-137.3242	559.3668	667.7744	-133.9308
1654	55.1000	406.6586	568.2472	-94.5938	519.8424	603.4498	-133.9626	568.3200	673.6829	-123.6244
1655	55.1333	407.0814	568.9093	-96.5627	518.9562	606.7192	-136.1023	579.4659	675.4461	-123.8240
1656	55.1667	407.2796	569.8014	-97.5080	519.7602	609.1618	-139.1006	587.1693	675.2848	-125.8196
1657	55.2000	407.8986	570.9564	-97.0985	522.9762	610.4329	-137.9932	589.9377	674.2692	-121.3452
1658	55.2333	408.7080	572.0931	-95.1095	525.9984	609.8195	-131.5867	591.4861	672.2784	-110.9943
1659	55.2667	409.3521	572.8276	-91.2964	526.3412	607.2580	-123.2790	595.2894	669.8422	-102.1291
1660	55.3000	409.7871	573.0101	-86.4229	523.8438	603.7442	-117.6798	600.1641	668.3853	-100.1021
1661	55.3333	410.1551	572.8173	-82.3209	520.2733	600.7987	-116.0982	603.1355	668.2262	-102.8941
1662	55.3667	410.6644	572.5489	-80.3274	518.1878	599.5494	-115.8137	604.7582	667.0529	-104.5167
1663	55.4000	411.3778	572.3906	-80.1682	518.8406	599.3796	-114.0524	607.6787	661.0899	-102.3123
1664	55.4333	411.5820	572.3529	-80.5641	518.9984	596.7970	-111.7108	609.6029	648.2334	-99.4158
1665	55.4667	409.6674	572.3491	-80.3828	511.4420	587.0375	-112.0001	602.1625	630.1503	-100.0596
1666	55.5000	404.6029	572.2823	-79.1286	492.5067	568.8694	-115.7008	580.4090	611.0849	-103.7280
1667	55.5333	397.6926	572.1201	-76.9110	468.7232	547.4424	-119.2442	551.5262	594.5594	-105.0312
1668	55.5667	391.9158	571.9462	-74.2506	451.2610	530.2735	-118.2860	529.9572	581.1654	-99.1576
1669	55.6000	388.9540	571.8886	-71.6914	442.6685	520.2645	-112.1756	523.6789	568.9055	-86.3258
1670	55.6333	387.4415	571.9057	-69.2894	433.5885	514.2715	-103.7135	527.8336	555.1967	-71.3889
1671	55.6667	384.6862	571.6900	-66.4048	414.4911	508.1786	-95.4856	530.9659	539.1910	-61.7008
1672	55.7000	379.6819	570.9068	-62.1809	386.8319	501.2614	-88.4400	524.0088	523.0899	-64.9563
1673	55.7333	373.8170	569.5313	-56.4275	360.6798	495.4190	-83.6271	503.9235	511.0394	-83.7489
1674	55.7667	368.8495	567.8340	-50.1378	344.4416	492.0290	-82.6687	473.1069	505.6263	-109.9212
1675	55.8000	364.9742	566.0445	-45.0679	338.4626	490.4319	-85.3565	436.4749	504.6577	-129.1080
1676	55.8333	361.1404	564.1855	-42.1698	336.2290	488.8073	-88.0123	397.2854	501.9339	-133.7266
1677	55.8667	356.5991	562.2834	-39.8315	330.3740	486.0287	-85.4912	356.7560	492.6419	-127.7935
1678	55.9000	351.4708	560.5968	-34.6508	318.6584	482.7858	-75.5312	318.8973	478.4011	-118.3869
1679	55.9333	346.0903	559.4921	-25.6439	304.9936	480.9191	-61.8001	291.6986	465.9066	-108.5191
1680	55.9667	340.5419	559.0949	-17.1365	294.8812	481.5302	-52.2333	279.9458	460.2895	-100.2719
1681	56.0000	334.9587	559.1722	-15.2207	290.1420	483.9856	-52.8322	279.3898	461.0420	-98.2847
1682	56.0333	329.8090	559.4367	-21.0553	287.6816	487.0517	-62.3177	280.7249	464.4950	-105.1900
1683	56.0667	325.6604	559.8936	-29.4418	282.7924	490.4907	-73.3423	277.8247	468.1632	-116.5609
1684	56.1000	322.8211	560.7483	-34.5206	273.7475	494.8458	-79.4158	271.0623	471.5695	-124.7508
1685	56.1333	321.2512	562.0101	-35.7774	263.0759	500.0309	-80.5993	264.4288	474.5260	-127.0125
1686	56.1667	320.6041	563.3767	-38.0261	254.1016	504.9759	-82.3291	260.9947	476.4917	-126.9651
1687	56.2000	320.2533	564.5601	-45.8273	247.1426	508.5845	-88.8713	260.8591	477.3452	-128.6042
1688	56.2333	319.5242	565.5721	-58.1069	240.1936	510.5320	-98.5219	262.1569	477.6396	-131.8819
1689	56.2667	318.1791	566.5913	-68.7225	232.5412	511.3263	-105.7884	262.7222	477.8950	-134.7004
1690	56.3000	316.6084	567.6585	-72.7269	225.8673	511.9957	-107.7340	260.8912	478.0995	-136.2582
1691	56.3333	315.3734	568.6998	-71.4067	221.5696	513.4382	-106.6775	256.8411	478.0962	-136.1756
1692	56.3667	314.6614	569.8720	-70.4342	218.5332	515.6510	-106.3571	254.7309	478.2880	-132.1463
1693	56.4000	314.1940	571.6032	-73.5066	214.4098	517.7113	-106.9639	261.3344	479.6623	-121.7415
1694	56.4333	313.3679	574.0084	-78.5181	208.4209	518.7306	-105.1980	278.9025	482.9106	-106.7374
1695	56.4667	311.5851	576.4670	-80.1429	202.3368	518.7181	-99.1621	300.2233	487.7216	-93.7421
1696	56.5000	308.9511	578.2012	-75.9994	199.0209	518.4050	-92.5622	315.1294	493.2281	-90.2521
1697	56.5333	306.5251	579.1581	-69.7914	200.2607	518.3288	-92.8899	322.1682	498.8140	-100.1905
1698	56.5667	305.2953	579.8914	-67.8286	205.7704	518.1904	-104.0551	329.6582	504.0193	-120.9740
1699	56.6000	304.9914	580.7248	-72.3725	214.0919	517.1701	-120.9072	344.5924	508.1955	-143.1864
1700	56.6333	304.4441	581.5365	-78.9171	224.4205	514.9311	-132.8392	364.8286	511.1777	-155.9299
1701	56.6667	303.0596	582.2811	-80.7051	237.3262	512.2042	-133.7922	383.8374	514.0583	-156.0698
1702	56.7000	301.4278	583.1808	-75.9867	253.4855	510.1532	-127.5422	399.0942	518.2754	-150.6286
1703	56.7333	300.4057	584.2718	-70.1298	272.3499	509.2121	-122.3281	412.6513	523.9210	-146.7502
1704	56.7667	300.1004	585.0958	-70.1501	293.1686	508.9695	-121.8590	426.1268	530.0925	-141.5959
1705	56.8000	300.0608	585.0607	-77.5817	316.7941	509.3319	-123.1463	439.0891	537.1331	-127.2532
1706	56.8333	300.1461	584.0533	-87.2759	344.0128	511.1826	-121.9859	451.4949	546.8401	-104.5878
1707	56.8667	300.7464	582.6214	-92.9680	371.3269	515.2843	-118.2498	464.1088	559.3442	-85.9448
1708	56.9000	302.1732	581.5598	-93.1092	391.3966	520.9172	-115.3771	476.1102	571.4311	-82.1206
1709	56.9333	304.2230	581.3488	-91.0038	400.2033	526.3868	-116.1712	484.9526	579.7898	-90.8489
1710	56.9667	306.5129	581.9503	-90.4495	401.9491	530.7684	-120.2027	489.5268	584.7341	-100.7076
1711	57.0000	308.9632	582.9978	-92.4481	404.2815	534.4795	-124.9528	491.7354	588.8343	-103.8756
1712	57.0333	311.6504	584.0334	-95.6079	409.8341	538.1304	-128.5806	494.1189	592.9968	-102.6689
1713	57.0667	314.3075	584.5513	-98.2411	414.7288	541.2392	-131.2446	497.1401	595.8692	-104.7771
1714	57.1000	316.2917	583.9978	-99.7258	414.4402	542.0455	-134.0762	499.4285	596.0871	-113.8892
1715	57.1333	317.0997	582.0525	-100.7241	408.6768	538.6311	-137.1277	499.6815	592.9388	-124.2805
1716	57.1667	316.7929	579.1296	-102.3901	400.6159	530.9114	-138.1533	497.6345	585.6161	-123.8240
1717	57.2000	315.9322	576.4499	-104.6745	393.4914	521.7781	-134.0224	493.8501	574.3587	-105.3505
1718	57.2333	315.2311	575.2527	-105.3497	388.6093	515.4972	-125.0774	489.3702	562.3517	-78.6668
1719	57.2667	315.2542	575.7392	-101.8216	385.5544	514.4084	-117.9656	485.4517	554.3399	-67.9845
1720	57.3000	316.2500	576.8063	-94.4731	383.8646	517.3754	-120.4940	483.1312	552.8582	-88.8375
1721	57.3333	318.0841	576.8997	-87.1520	384.8016	521.3316	-131.1427	482.8733	556.7786	-125.5706
